<svg width="10" height="11" viewBox="0 0 10 11" fill="none" xmlns="http://www.w3.org/2000/svg">
<path d="M5.91617 5.88875L9.80999 1.99475C10.0634 1.74146 10.0634 1.33193 9.80999 1.07864C9.5567 0.82535 9.14718 0.82535 8.89389 1.07864L4.99996 4.97264L1.10615 1.07864C0.852743 0.82535 0.443336 0.82535 0.190052 1.07864C-0.0633507 1.33193 -0.0633507 1.74146 0.190052 1.99475L4.08387 5.88875L0.190052 9.78274C-0.0633507 10.036 -0.0633507 10.4456 0.190052 10.6989C0.316279 10.8252 0.482248 10.8887 0.648099 10.8887C0.81395 10.8887 0.979801 10.8252 1.10615 10.6989L4.99996 6.80486L8.89389 10.6989C9.02024 10.8252 9.18609 10.8887 9.35194 10.8887C9.51779 10.8887 9.68364 10.8252 9.80999 10.6989C10.0634 10.4456 10.0634 10.036 9.80999 9.78274L5.91617 5.88875Z" fill="white"/>
</svg>
